<svg xmlns="http://www.w3.org/2000/svg" viewBox="25 70 480 100" width="480" height="100">
  <!-- Icon: Bold O with diagonal split and data stream -->
  <g transform="translate(70, 128)">
    <!-- O shape - left half (dark) -->
    <path d="M-3,-36 C-20,-34 -36,-20 -36,0 C-36,20 -20,36 0,36 L-3,36 L-3,-36 Z M-3,-20 L-3,20 C-11,18 -20,11 -20,0 C-20,-11 -11,-18 -3,-20 Z" fill="#001B5E"/>
    
    <!-- O shape - right half (lighter blue) -->
    <path d="M3,-36 C20,-34 36,-20 36,0 C36,20 20,36 0,36 L3,36 L3,-36 Z M3,-20 L3,20 C11,18 20,11 20,0 C20,-11 11,-18 3,-20 Z" fill="#0C5ECF"/>
    
    <!-- Data stream dots in the gap -->
    <circle cx="0" cy="-18" r="2" fill="#3B8EF0" opacity="0.9"/>
    <circle cx="0" cy="-8" r="1.5" fill="#3B8EF0" opacity="0.7"/>
    <circle cx="0" cy="2" r="1.5" fill="#3B8EF0" opacity="0.5"/>
    <circle cx="0" cy="12" r="2" fill="#3B8EF0" opacity="0.7"/>
    <circle cx="0" cy="22" r="1.5" fill="#3B8EF0" opacity="0.4"/>
  </g>
  
  <!-- Text: ODATANO -->
  <text x="120" y="125" font-family="'Segoe UI', 'Helvetica Neue', sans-serif" font-size="50" letter-spacing="6" fill="#001840">
    <tspan font-weight="600" fill="#001840">DATA</tspan><tspan font-weight="400" fill="#0C5ECF">NO</tspan>
  </text>
  
  <!-- TRACE -->
  <text x="120" y="160" font-family="'Segoe UI', 'Helvetica Neue', sans-serif" font-size="28" letter-spacing="10" fill="#3B8EF0" font-weight="300">
    TRACE
  </text>
</svg>
